<svg width="20px" height="20px" viewBox="0 0 40 40" xmlns="http://www.w3.org/2000/svg">
<path d="M19.9325 40C19.2982 40 18.6638 39.7635 18.4523 39.2904L2.80398 20.1311C-1.00237 15.4004 -1.00237 8.06779 3.22691 3.57363C5.34155 1.20828 8.30204 -0.210927 11.474 0.0256078C14.4345 0.262143 17.395 1.91789 19.2982 4.51977L19.9325 5.46591L20.7784 4.51977C22.6816 1.91789 25.6421 0.262143 28.6026 0.0256078C31.5631 -0.210927 34.735 1.20828 36.8497 3.57363C40.8675 8.06779 41.0789 15.4004 37.2726 20.1311L21.6243 39.2904C21.2013 39.7635 20.5669 40 19.9325 40ZM10.8396 4.51977C8.93643 4.51977 7.45619 5.46591 6.1874 6.64858C3.64984 9.487 3.64984 13.7446 5.97594 16.8196L19.9325 34.0866L33.8892 16.8196C36.2153 13.9812 36.2153 9.487 33.6777 6.64858C32.4089 5.22938 30.5057 4.28324 28.6026 4.51977C26.6994 4.51977 25.0077 5.70244 23.9504 7.35819L21.6243 10.6697C20.7784 11.8524 19.0867 11.8524 18.2408 10.6697L15.9147 7.35819C14.646 5.70244 12.9542 4.75631 11.0511 4.51977H10.8396Z"/>
</svg>
