<svg width="40" height="40" viewBox="0 0 40 40" fill="none" xmlns="http://www.w3.org/2000/svg">
<path d="M39.8883 20.5469C39.7811 20.8077 39.5991 21.031 39.3652 21.1886C39.1313 21.3462 38.8559 21.431 38.5738 21.4324H34.2876V35.7152C34.2876 36.8516 33.836 37.9414 33.0321 38.745C32.2283 39.5486 31.1381 40 30.0013 40H24.2863C23.9073 40 23.5439 39.8495 23.276 39.5817C23.008 39.3138 22.8575 38.9505 22.8575 38.5717V30.0021C22.8575 29.6233 22.707 29.26 22.439 28.9921C22.1711 28.7243 21.8077 28.5738 21.4288 28.5738H18.5712C18.1923 28.5738 17.8289 28.7243 17.561 28.9921C17.293 29.26 17.1425 29.6233 17.1425 30.0021V38.5717C17.1425 38.9505 16.992 39.3138 16.724 39.5817C16.4561 39.8495 16.0927 40 15.7137 40H9.99871C8.86192 40 7.77169 39.5486 6.96785 38.745C6.16402 37.9414 5.71244 36.8516 5.71244 35.7152V21.4324H1.42617C1.14409 21.431 0.868748 21.3462 0.634832 21.1886C0.400915 21.031 0.218895 20.8077 0.111709 20.5469C0.00229586 20.2868 -0.0275975 20.0001 0.025801 19.723C0.0791995 19.446 0.213497 19.1909 0.411748 18.9901L18.9856 0.422482C19.1184 0.288611 19.2764 0.182356 19.4505 0.109844C19.6246 0.0373326 19.8114 0 20 0C20.1886 0 20.3754 0.0373326 20.5495 0.109844C20.7236 0.182356 20.8816 0.288611 21.0144 0.422482L39.5883 18.9901C39.7865 19.1909 39.9208 19.446 39.9742 19.723C40.0276 20.0001 39.9977 20.2868 39.8883 20.5469Z" fill="black"/>
</svg>
