<svg width="42" height="42" viewBox="0 0 42 42" xmlns="http://www.w3.org/2000/svg">
<path d="M20.9791 0.75C9.85024 0.75 0.75 8.89351 0.75 18.9565C0.75 26.4941 5.89829 33.1977 13.6138 35.8935V40.0706C13.6138 40.2649 13.6586 40.4571 13.7451 40.6295C13.8317 40.802 13.958 40.9504 14.1142 41.0593C14.2706 41.1682 14.4515 41.2336 14.6403 41.2473C14.8291 41.261 15.0171 41.2224 15.1866 41.1364C15.1867 41.1364 15.1867 41.1364 15.1868 41.1364L23.2486 37.05C33.5034 36.0371 41.25 28.3071 41.25 18.9565C41.25 8.89304 32.1305 0.75 20.9791 0.75ZM22.863 34.7206C22.7308 34.7323 22.6023 34.7695 22.4834 34.8298L15.816 38.2098V35.0235C15.816 35.0235 15.816 35.0235 15.816 35.0235C15.816 34.7715 15.7407 34.5243 15.5987 34.3196C15.4564 34.1145 15.2537 33.9618 15.0184 33.8896C7.78359 31.6705 2.95213 25.6595 2.95213 18.9565C2.95213 10.2493 11.0086 3.10847 20.9791 3.10847C30.9732 3.10847 39.0479 10.2498 39.0479 18.9565C39.0479 27.0875 32.1172 33.8854 22.863 34.7206Z" stroke-width="0.5"/>
<path d="M14.2878 15.5884C13.7115 15.5884 13.1482 15.775 12.669 16.1245C12.1898 16.4741 11.8163 16.971 11.5957 17.5523C11.3751 18.1336 11.3173 18.7733 11.4297 19.3905C11.5421 20.0076 11.8195 20.5745 12.227 21.0196C12.6344 21.4646 13.1536 21.7677 13.7188 21.8905C14.284 22.0134 14.8699 21.9505 15.4024 21.7099C15.9349 21.4692 16.39 21.0615 16.7103 20.5384C17.0306 20.0153 17.2017 19.4003 17.2019 18.771C17.2013 17.9273 16.8941 17.1183 16.3478 16.5216C15.8014 15.9249 15.0606 15.5892 14.2878 15.5884ZM14.2878 20.0952C14.0482 20.0952 13.8139 20.0176 13.6146 19.8722C13.4153 19.7269 13.26 19.5203 13.1682 19.2785C13.0765 19.0368 13.0524 18.7708 13.0991 18.5141C13.1458 18.2575 13.2612 18.0217 13.4306 17.8366C13.6 17.6515 13.8158 17.5254 14.0509 17.4742C14.2859 17.4231 14.5296 17.4492 14.751 17.5492C14.9725 17.6492 15.1618 17.8186 15.2951 18.0361C15.4283 18.2536 15.4996 18.5093 15.4997 18.771C15.4991 19.1216 15.3711 19.4576 15.144 19.7054C14.9168 19.9531 14.6089 20.0925 14.2878 20.0928V20.0952Z"/>
<path d="M21.4719 15.5884C20.8956 15.5884 20.3322 15.775 19.853 16.1245C19.3738 16.4741 19.0003 16.971 18.7798 17.5523C18.5592 18.1336 18.5014 18.7733 18.6138 19.3905C18.7262 20.0076 19.0036 20.5745 19.4111 21.0196C19.8185 21.4646 20.3377 21.7677 20.9029 21.8905C21.4681 22.0134 22.054 21.9505 22.5865 21.7099C23.119 21.4692 23.5741 21.0615 23.8944 20.5384C24.2147 20.0153 24.3858 19.4003 24.3859 18.771C24.3855 17.9272 24.0784 17.1181 23.532 16.5214C22.9856 15.9247 22.2447 15.5891 21.4719 15.5884ZM21.4719 20.0952C21.2322 20.0952 20.998 20.0176 20.7987 19.8722C20.5994 19.7269 20.4441 19.5203 20.3523 19.2785C20.2606 19.0368 20.2365 18.7708 20.2832 18.5141C20.3299 18.2575 20.4452 18.0217 20.6147 17.8366C20.7841 17.6515 20.9999 17.5254 21.235 17.4742C21.47 17.4231 21.7136 17.4492 21.9351 17.5492C22.1566 17.6492 22.3459 17.8186 22.4792 18.0361C22.6124 18.2536 22.6837 18.5093 22.6838 18.771C22.6833 19.1216 22.5554 19.4577 22.3282 19.7055C22.101 19.9533 21.793 20.0926 21.4719 20.0928V20.0952Z"/>
<path d="M28.6562 15.5884C28.0799 15.5884 27.5166 15.775 27.0374 16.1245C26.5582 16.4741 26.1847 16.971 25.9641 17.5523C25.7435 18.1336 25.6857 18.7733 25.7981 19.3905C25.9105 20.0076 26.1879 20.5745 26.5954 21.0196C27.0028 21.4646 27.522 21.7677 28.0872 21.8905C28.6524 22.0134 29.2383 21.9505 29.7708 21.7099C30.3033 21.4692 30.7585 21.0615 31.0788 20.5384C31.3991 20.0153 31.5701 19.4003 31.5703 18.771C31.5697 17.9273 31.2625 17.1183 30.7162 16.5216C30.1699 15.9249 29.429 15.5892 28.6562 15.5884ZM28.6562 20.0952C28.4166 20.0952 28.1823 20.0176 27.983 19.8722C27.7837 19.7269 27.6284 19.5203 27.5367 19.2785C27.4449 19.0368 27.4208 18.7708 27.4675 18.5141C27.5142 18.2575 27.6296 18.0217 27.799 17.8366C27.9684 17.6515 28.1842 17.5254 28.4193 17.4742C28.6543 17.4231 28.898 17.4492 29.1194 17.5492C29.3409 17.6492 29.5302 17.8186 29.6635 18.0361C29.7968 18.2536 29.868 18.5093 29.8681 18.771C29.8676 19.1216 29.7397 19.4577 29.5125 19.7055C29.2853 19.9533 28.9774 20.0926 28.6562 20.0928V20.0952Z"/>
</svg>
