<svg width="42" height="42" viewBox="0 0 42 42" fill="none" xmlns="http://www.w3.org/2000/svg">
<path d="M1.00054 17.2244C1.07208 26.1194 8.27307 33.2704 17.0902 33.2024C20.9016 33.1731 24.3851 31.8016 27.1137 29.5342L38.1734 40.517C38.8286 41.168 39.877 41.1599 40.5219 40.499C41.1667 39.8381 41.1583 38.7805 40.5028 38.1298L29.4433 27.1469C31.6475 24.3588 32.9519 20.8234 32.9209 16.9785C32.8495 8.0836 25.6483 0.932562 16.8312 1.00048C8.01413 1.0684 0.929082 8.33771 1.00054 17.2244ZM29.6054 17.004C29.6621 24.0461 24.0439 29.8038 17.0633 29.8577C10.0829 29.9115 4.37264 24.2409 4.31621 17.1989C4.25956 10.1567 9.87753 4.39906 16.8582 4.34529C23.8388 4.2915 29.5488 9.96192 29.6054 17.004Z" fill="black" stroke="black" stroke-width="0.5"/>
</svg>
