<svg width="182" height="150" viewBox="0 0 182 150" xmlns="http://www.w3.org/2000/svg">
<path d="M91.0018 149.935C90.0709 149.936 89.1583 149.676 88.3678 149.185C86.2542 147.876 36.3584 116.701 11.0726 81.1749C-3.17975 61.1496 -3.71465 36.9106 9.70836 19.4188C14.5046 13.1781 20.7142 8.16548 27.8261 4.79338C34.938 1.42128 42.749 -0.213892 50.6163 0.0224118C58.2904 0.191329 65.8116 2.20196 72.5463 5.88495C79.2811 9.56795 85.0321 14.8155 89.3151 21.1855C89.8883 22.035 90.4506 22.8958 91.0018 23.768C91.5517 22.8942 92.1171 22.0303 92.691 21.1855C96.9719 14.8158 102.721 9.56834 109.454 5.88529C116.187 2.20223 123.707 0.191471 131.38 0.0224118C139.246 -0.204838 147.054 1.43435 154.165 4.80574C161.276 8.17713 167.487 13.1848 172.29 19.4188C185.716 36.9106 185.179 61.1496 170.928 81.1749C145.642 116.699 95.7509 147.874 93.6378 149.183C92.8467 149.675 91.9335 149.935 91.0018 149.935ZM49.0811 9.99456C42.9973 9.96478 36.9899 11.3501 31.5335 14.041C26.0771 16.732 21.3211 20.6548 17.6414 25.4997C6.95236 39.4326 7.56975 59.009 19.2181 75.3734C40.1422 104.772 80.3538 132.062 91.0018 138.999C101.65 132.057 141.876 104.743 162.785 75.3734C174.429 59.009 175.049 39.4326 164.362 25.4997C160.538 20.5056 155.578 16.4955 149.894 13.8023C144.209 11.1091 137.965 9.81045 131.678 10.0141C125.59 10.1446 119.622 11.7365 114.278 14.6558C108.934 17.5751 104.37 21.7362 100.97 26.7885C98.9405 29.7909 97.099 32.9165 95.4565 36.1472C94.9941 36.9155 94.341 37.5511 93.5604 37.9924C92.7799 38.4337 91.8984 38.6656 91.0018 38.6656C90.1051 38.6656 89.2237 38.4337 88.4431 37.9924C87.6626 37.5511 87.0094 36.9155 86.5471 36.1472C84.9033 32.9176 83.0625 29.7922 81.0351 26.7885C77.6341 21.7355 73.0684 17.5741 67.7226 14.6548C62.3769 11.7355 56.4078 10.1439 50.3183 10.0141C49.9059 10.0046 49.491 9.99456 49.0811 9.99456Z"/>
</svg>
