<svg width="28" height="22" viewBox="0 0 28 22" fill="none" xmlns="http://www.w3.org/2000/svg">
<path d="M8.22096 9.19235C8.25476 13.6714 11.6575 17.2724 15.8238 17.2382C17.6248 17.2234 19.2709 16.5327 20.5602 15.391L25.7863 20.9215C26.0959 21.2492 26.5913 21.2452 26.896 20.9124C27.2007 20.5796 27.1967 20.047 26.887 19.7194L21.661 14.1889C22.7026 12.7849 23.319 11.0046 23.3043 9.06851C23.2706 4.58945 19.8678 0.988502 15.7015 1.0227C11.5351 1.0569 8.18719 4.7174 8.22096 9.19235ZM21.7377 9.08138C21.7644 12.6275 19.1097 15.5267 15.8111 15.5539C12.5126 15.581 9.81438 12.7256 9.78772 9.17948C9.76095 5.63338 12.4156 2.73407 15.7142 2.707C19.0127 2.67991 21.7109 5.53528 21.7377 9.08138Z" fill="#7F7F7F" stroke="#7F7F7F" stroke-width="0.5"/>
<path d="M1.56434 1.38965H5.6669C6.36868 1.38965 6.95537 1.98612 6.95537 2.7443C6.95537 3.50248 6.36868 4.09895 5.6669 4.09895H1.56434C0.862563 4.09895 0.275879 3.50248 0.275879 2.7443C0.275879 1.98612 0.862563 1.38965 1.56434 1.38965Z" fill="#7F7F7F" stroke="#7F7F7F" stroke-width="0.5"/>
<path d="M4.61539 9H1.53846C0.688793 9 0 9.71843 0 10.6047C0 11.4909 0.688793 12.2093 1.53846 12.2093H4.61539C5.46505 12.2093 6.15385 11.4909 6.15385 10.6047C6.15385 9.71843 5.46505 9 4.61539 9Z" fill="#7F7F7F"/>
<path d="M9.74359 17H1.53846C0.688793 17 0 17.7184 0 18.6047C0 19.4909 0.688793 20.2093 1.53846 20.2093H9.74359C10.5933 20.2093 11.2821 19.4909 11.2821 18.6047C11.2821 17.7184 10.5933 17 9.74359 17Z" fill="#7F7F7F"/>
</svg>
