<svg width="217" height="222" viewBox="0 0 217 222" xmlns="http://www.w3.org/2000/svg">
<path d="M26.5337 113.415C27.8637 113.415 28.9419 112.317 28.9419 110.962C28.9419 109.607 27.8637 108.509 26.5337 108.509C25.2035 108.509 24.1255 109.607 24.1255 110.962C24.1255 112.317 25.2035 113.415 26.5337 113.415Z" />
<path d="M190.295 113.415C191.625 113.415 192.703 112.317 192.703 110.962C192.703 109.607 191.625 108.509 190.295 108.509C188.965 108.509 187.887 109.607 187.887 110.962C187.887 112.317 188.965 113.415 190.295 113.415Z" />
<path d="M31.2285 84.6212C32.0232 82.9044 33.2032 82.1686 34.7685 82.659L34.8408 82.6837C37.0564 83.3457 38.0919 85.9703 37.1528 89.1587C36.1172 92.666 33.9255 93.966 31.1079 93.4756L31.9991 90.4095C33.3717 90.4833 34.2387 89.9436 34.6723 88.4475C35.0334 87.2211 34.6723 86.4362 33.6849 86.1419L33.6126 86.1173C32.6973 85.8477 32.0714 86.3136 31.71 87.5154L31.2285 89.1343L29.1332 88.4964L29.5426 87.0985C29.8556 86.0438 29.5667 85.357 28.7238 85.0872L28.6756 85.0628C27.9532 84.842 27.327 85.1119 26.9659 86.3136C26.6527 87.4419 26.9659 88.2758 27.9291 88.8888L27.038 91.9302C24.2203 90.7529 23.6665 87.9813 24.413 85.4305C25.2559 82.512 27.1344 80.7705 29.1573 81.3837L29.2055 81.4082C30.6023 81.8497 31.3488 82.9044 31.2285 84.6212Z" />
<path d="M39.9463 78.6856C39.0551 79.078 37.9716 79.0533 36.8154 78.4157C35.5151 77.7046 34.9369 76.6007 34.9131 75.2273C34.8889 73.8783 35.4428 72.2594 36.3578 70.5182L37.0322 69.2427L36.5746 68.9975C35.226 68.2617 34.3108 68.2617 33.5402 69.7086C32.8899 70.9351 33.2031 71.8425 34.0942 72.5048L32.5046 75.4725C31.2525 74.6632 30.6022 73.5103 30.4576 72.2841C30.3131 71.0576 30.6743 69.6351 31.421 68.2617C32.1675 66.8636 33.0587 65.8579 34.1905 65.3429C35.2984 64.8523 36.5746 64.9504 38.0919 65.7844L45.3647 69.8068L43.7271 72.8726L42.3786 72.1368C42.9324 73.3142 43.101 74.6385 42.1377 76.4291C41.608 77.4838 40.8372 78.2931 39.9463 78.6856ZM39.8257 70.7634L38.8866 70.2483L38.2363 71.4745C37.2731 73.2897 37.0804 74.565 38.2845 75.2273C39.1274 75.6933 39.898 75.4725 40.5001 74.3198C41.2227 72.9217 41.078 71.4745 39.8257 70.7634Z" />
<path d="M49.772 68.5314L45.5574 64.8032L46.0392 64.2391C46.328 63.3316 45.678 62.3262 44.3533 60.8546C43.2456 59.6035 41.5116 57.9358 39.4404 56.1208L45.9427 48.542L53.6252 55.3604L54.8052 53.9869L59.0196 57.715L57.0208 60.045L54.6606 58.0093L49.4588 64.1165L51.7467 66.226L49.772 68.5314ZM48.5197 61.345L51.3614 58.0093L45.5574 52.8342L43.3177 55.4341C44.4256 56.4398 45.678 57.6169 46.5689 58.6472C47.5324 59.6773 48.1824 60.5112 48.5197 61.345Z" />
<path d="M60.0551 52.0002C59.0677 51.9758 58.1283 51.4851 57.3336 50.3813C56.4669 49.1551 56.3945 47.9287 56.9484 46.6778C57.5022 45.4514 58.6824 44.2252 60.2477 43.0479L61.4036 42.1895L61.0906 41.7724C60.1754 40.5215 59.3566 40.1291 58.0563 41.1101C56.9483 41.9441 56.8763 42.8762 57.3819 43.8816L54.7087 45.893C53.914 44.6174 53.7937 43.2931 54.1789 42.1157C54.5642 40.9384 55.4793 39.8348 56.7316 38.8782C57.9839 37.9461 59.2363 37.4066 60.4645 37.4557C61.6686 37.5048 62.8004 38.1424 63.8118 39.5405L68.7006 46.3345L65.9312 48.3946L65.0162 47.1438C65.0162 48.4684 64.6068 49.7192 62.9932 50.921C62.0539 51.6324 61.0424 52.0246 60.0551 52.0002ZM63.258 44.7894L62.6318 43.9063L61.5242 44.7403C59.8865 45.9665 59.188 47.0456 59.9827 48.1495C60.5368 48.9344 61.3315 49.0814 62.3671 48.2967C63.6433 47.3646 64.1009 45.9665 63.258 44.7894Z" />
<path d="M74.2636 31.8146L78.5504 41.2331L75.3715 42.7291L71.0848 33.3106L67.6652 34.9295L66.6055 32.6239L76.5998 27.8904L77.6592 30.1957L74.2636 31.8146Z" />
<path d="M86.0883 24.947L87.0516 28.9203L89.2912 28.3562C92.1812 27.6448 94.4209 28.6996 95.0953 31.4955L95.1194 31.5693C95.7935 34.3408 94.3727 36.1802 91.29 36.9651L85.7754 38.3386L82.7407 25.8054L86.0883 24.947ZM91.6756 32.403L91.6515 32.3295C91.3383 31.0787 90.5195 30.6371 89.1227 30.9805L87.6295 31.3485L88.5447 35.0766L90.038 34.7086C91.4106 34.3408 91.9644 33.5804 91.6756 32.403Z" />
<path d="M121.49 22.9848C124.307 23.4018 126.066 24.6036 125.752 26.8356V26.8846C125.536 28.3563 124.621 29.2391 122.935 29.3863C124.717 29.9751 125.656 31.0296 125.415 32.722V32.7467C125.078 35.1746 123.248 36.3029 120.045 35.8369L114.193 34.9785L116.023 22.2L121.49 22.9848ZM117.95 33.2861L119.611 33.5313C120.984 33.7277 121.731 33.3596 121.899 32.207V32.1826C122.044 31.1031 121.514 30.4655 120.238 30.2938L118.407 30.024L117.95 33.2861ZM118.72 27.8412L120.093 28.0373C121.321 28.209 121.996 27.7921 122.14 26.7865V26.7621C122.285 25.6829 121.634 25.2904 120.358 25.0941L119.13 24.9224L118.72 27.8412Z" />
<path d="M130.978 36.72C130.256 35.2484 130.159 33.4087 130.858 31.5447L130.93 31.373C131.628 29.5089 132.905 28.1599 134.422 27.4979C135.939 26.8356 137.745 26.8111 139.527 27.4979C141.31 28.1846 142.658 29.3863 143.38 30.907C144.079 32.4031 144.175 34.2183 143.477 36.0824L143.405 36.2785C142.706 38.1916 141.43 39.4915 139.913 40.1292C138.395 40.7915 136.613 40.7915 134.831 40.1048C133.001 39.418 131.701 38.216 130.978 36.72ZM140.033 35.0276L140.081 34.8559C140.948 32.5503 140.394 30.7598 138.54 30.0486C136.734 29.3619 135.144 30.2694 134.277 32.5748L134.205 32.7467C133.338 35.052 133.844 36.8426 135.746 37.554C137.601 38.2898 139.19 37.3332 140.033 35.0276Z" />
<path d="M153.616 37.7993L147.956 46.4328L145.066 44.4706L152.099 33.7278L161.587 40.1784L154.555 50.9212L151.665 48.959L157.325 40.3256L153.616 37.7993Z" />
<path d="M170.353 48.1987L168.908 49.5968C170.281 49.2532 172.063 49.6213 173.339 51.0194C174.399 52.172 174.929 53.5946 174.808 55.1153C174.688 56.6116 173.917 58.2058 172.376 59.6774L172.232 59.8C170.69 61.2716 169.101 61.9583 167.632 62.0074C166.115 62.0565 164.742 61.4433 163.658 60.2659C162.31 58.819 162.045 57.0775 162.502 55.7285L157.951 60.0942L155.542 57.4944L167.945 45.6233L170.353 48.1987ZM169.775 57.151L169.92 57.004C171.822 55.1888 171.846 53.3985 170.642 52.0739C169.39 50.7004 167.584 50.6513 165.729 52.4419L165.585 52.5889C163.73 54.355 163.634 56.1209 164.959 57.5435C166.283 58.966 167.969 58.8925 169.775 57.151Z" />
<path d="M172.159 68.2618C172.521 66.6673 173.58 65.1713 175.29 64.1903L175.459 64.0921C177.168 63.0865 178.975 62.8904 180.564 63.3563C182.154 63.8223 183.55 64.9752 184.49 66.6673C185.453 68.3597 185.742 70.1503 185.332 71.7936C184.923 73.3878 183.888 74.8594 182.178 75.865L182.009 75.9632C180.275 76.9933 178.493 77.165 176.904 76.699C175.314 76.2331 173.941 75.0557 172.978 73.3878C172.039 71.6463 171.774 69.8804 172.159 68.2618ZM180.227 72.7992L180.372 72.7011C182.467 71.4746 183.165 69.7334 182.178 67.9919C181.214 66.2749 179.408 65.9562 177.313 67.1826L177.144 67.2806C175.049 68.507 174.327 70.1994 175.338 71.9899C176.326 73.7558 178.132 74.0257 180.227 72.7992Z" />
<path d="M179.914 84.1061C180.612 82.6345 181.961 81.4815 183.936 80.8686L184.128 80.8195C186.079 80.2063 187.861 80.427 189.33 81.2364C190.775 82.0457 191.835 83.4438 192.365 85.2343C192.798 86.6569 192.919 88.1285 192.485 89.4284C192.052 90.7039 191.088 91.8075 189.403 92.5189L188.439 89.2811C189.764 88.6435 190.173 87.5643 189.74 86.1171C189.21 84.3268 187.548 83.5664 185.236 84.3022L185.044 84.3513C182.611 85.1117 181.696 86.6078 182.274 88.5209C182.684 89.919 183.767 90.7527 185.405 90.4341L186.344 93.5243C184.851 93.8923 183.478 93.696 182.346 92.9358C181.191 92.1999 180.251 90.9244 179.697 89.1341C179.119 87.3436 179.191 85.5777 179.914 84.1061Z" />
<path d="M185.766 136.766C184.971 138.483 183.791 139.218 182.25 138.752L182.178 138.728C179.962 138.065 178.926 135.466 179.841 132.277C180.853 128.77 183.045 127.47 185.862 127.911L184.995 130.977C183.623 130.903 182.755 131.443 182.322 132.964C181.961 134.19 182.322 134.975 183.333 135.269L183.406 135.294C184.321 135.564 184.947 135.098 185.308 133.871L185.766 132.252L187.861 132.866L187.452 134.264C187.138 135.343 187.427 136.005 188.295 136.275L188.343 136.3C189.065 136.52 189.691 136.25 190.052 135.024C190.366 133.896 190.028 133.062 189.065 132.473L189.932 129.407C192.75 130.585 193.328 133.332 192.605 135.883C191.762 138.801 189.932 140.567 187.885 139.954L187.837 139.929C186.392 139.537 185.645 138.483 185.766 136.766Z" />
<path d="M177.097 142.775C177.987 142.358 179.071 142.382 180.227 143.02C181.528 143.731 182.106 144.835 182.13 146.184C182.154 147.558 181.624 149.152 180.709 150.893L180.035 152.169L180.492 152.414C181.841 153.15 182.756 153.125 183.527 151.678C184.177 150.427 183.839 149.544 182.949 148.882L184.514 145.89C185.766 146.674 186.441 147.827 186.585 149.054C186.729 150.28 186.392 151.678 185.67 153.076C184.947 154.474 184.056 155.504 182.924 156.019C181.817 156.51 180.54 156.436 179.023 155.602L171.726 151.629L173.34 148.563L174.688 149.299C174.11 148.122 173.966 146.797 174.905 144.982C175.459 143.977 176.205 143.167 177.097 142.775ZM177.265 150.672L178.204 151.188L178.855 149.961C179.818 148.122 179.987 146.846 178.782 146.209C177.94 145.743 177.169 145.988 176.567 147.141C175.844 148.514 176.013 149.986 177.265 150.672Z" />
<path d="M167.319 152.978L171.557 156.681L171.076 157.246C170.811 158.153 171.437 159.159 172.786 160.63C173.917 161.881 175.651 163.525 177.723 165.315L171.292 172.943L163.562 166.198L162.406 167.596L158.167 163.893L160.142 161.538L162.502 163.549L167.656 157.417L165.344 155.333L167.319 152.978ZM168.619 160.164L165.802 163.525L171.654 168.651L173.869 166.026C172.761 165.021 171.509 163.868 170.57 162.838C169.631 161.832 168.981 160.998 168.619 160.164Z" />
<path d="M157.108 169.632C158.095 169.656 159.035 170.122 159.853 171.226C160.744 172.428 160.793 173.679 160.263 174.93C159.733 176.18 158.553 177.382 157.011 178.584L155.856 179.467L156.169 179.884C157.084 181.135 157.903 181.527 159.203 180.522C160.311 179.688 160.383 178.731 159.853 177.75L162.526 175.739C163.321 177.014 163.442 178.339 163.08 179.516C162.719 180.693 161.804 181.822 160.552 182.754C159.299 183.686 158.071 184.25 156.843 184.225C155.639 184.176 154.507 183.563 153.496 182.165L148.559 175.42L151.304 173.335L152.219 174.586C152.195 173.286 152.604 172.011 154.218 170.785C155.133 170 156.145 169.607 157.108 169.632ZM153.977 176.867L154.603 177.75L155.687 176.916C157.325 175.665 158.023 174.586 157.204 173.482C156.65 172.722 155.856 172.575 154.82 173.36C153.568 174.292 153.11 175.69 153.977 176.867Z" />
<path d="M143.116 189.866L138.757 180.473L141.912 178.952L146.271 188.346L149.666 186.702L150.726 189.008L140.756 193.815L139.72 191.51L143.116 189.866Z" />
<path d="M131.267 196.857L130.28 192.884L128.04 193.472C125.15 194.208 122.91 193.178 122.212 190.382L122.188 190.308C121.489 187.537 122.91 185.697 125.993 184.888L131.484 183.465L134.59 195.974L131.267 196.857ZM125.632 189.45L125.656 189.523C125.969 190.774 126.812 191.216 128.184 190.848L129.678 190.455L128.762 186.752L127.293 187.144C125.872 187.487 125.343 188.272 125.632 189.45Z" />
<path d="M95.89 199.015C93.0723 198.623 91.3141 197.421 91.6032 195.189V195.14C91.7959 193.668 92.7109 192.785 94.3968 192.614C92.6147 192.049 91.6515 190.97 91.8921 189.302V189.278C92.2294 186.85 94.0356 185.721 97.2385 186.163L103.115 186.997L101.381 199.8L95.89 199.015ZM98.6352 194.159L97.2626 193.963C96.0344 193.791 95.36 194.232 95.2397 195.213V195.238C95.0953 196.317 95.7455 196.709 97.0217 196.881L98.2499 197.053L98.6352 194.159ZM99.3579 188.689L97.6961 188.469C96.3235 188.272 95.5768 188.64 95.4082 189.793V189.817C95.2638 190.897 95.8176 191.534 97.0941 191.706L98.9243 191.951L99.3579 188.689Z" />
<path d="M86.2809 185.354C87.0274 186.825 87.1238 188.64 86.4494 190.529L86.3774 190.725C85.703 192.614 84.4265 193.938 82.9333 194.625C81.4163 195.287 79.6342 195.336 77.828 194.649C76.0216 193.963 74.6731 192.785 73.9507 191.265C73.2522 189.769 73.1319 187.953 73.8061 186.065L73.8784 185.869C74.5769 183.956 75.829 182.656 77.3463 181.993C78.8634 181.331 80.6457 181.307 82.4518 181.993C84.2339 182.656 85.5585 183.858 86.2809 185.354ZM77.226 187.12L77.1778 187.291C76.3348 189.621 76.9128 191.412 78.7431 192.099C80.5733 192.785 82.1386 191.853 82.9816 189.523L83.0539 189.327C83.8968 186.997 83.3668 185.231 81.4886 184.52C79.6342 183.833 78.0687 184.79 77.226 187.12Z" />
<path d="M63.6432 184.421L69.2546 175.763L72.1445 177.701L65.1605 188.493L55.6479 182.091L62.6317 171.3L65.5217 173.237L59.9106 181.895L63.6432 184.421Z" />
<path d="M46.8819 174.145L48.3269 172.747C46.954 173.09 45.172 172.747 43.8955 171.349C42.812 170.196 42.282 168.773 42.4026 167.277C42.4988 165.781 43.2694 164.187 44.7867 162.715L44.9311 162.568C46.4725 161.096 48.0619 160.385 49.5069 160.336C51.024 160.262 52.3969 160.876 53.4804 162.053C54.8292 163.5 55.1181 165.241 54.6845 166.59L59.2121 162.2L61.6444 164.8L49.3143 176.745L46.8819 174.145ZM47.4117 165.192L47.2672 165.315C45.3887 167.13 45.3646 168.945 46.5687 170.245C47.8452 171.594 49.6513 171.643 51.4816 169.852L51.626 169.705C53.4804 167.915 53.5528 166.173 52.2042 164.751C50.8796 163.328 49.2178 163.451 47.4117 165.192Z" />
<path d="M44.9552 154.106C44.6181 155.7 43.5584 157.197 41.8485 158.202L41.6799 158.3C39.9702 159.306 38.164 159.527 36.5744 159.061C34.985 158.595 33.5882 157.466 32.6009 155.774C31.6377 154.082 31.3245 152.291 31.7097 150.672C32.1192 149.054 33.1306 147.582 34.8406 146.577L35.0091 146.478C36.7432 145.448 38.5252 145.252 40.1146 145.718C41.704 146.184 43.1008 147.337 44.0643 149.005C45.0516 150.697 45.3164 152.487 44.9552 154.106ZM36.8635 149.618L36.7191 149.716C34.6238 150.967 33.9494 152.708 34.9368 154.45C35.9244 156.166 37.7305 156.461 39.8255 155.21L39.9943 155.112C42.0893 153.861 42.7878 152.169 41.7764 150.403C40.7649 148.637 38.9588 148.367 36.8635 149.618Z" />
<path d="M37.0802 138.262C36.3817 139.733 35.0331 140.911 33.0825 141.524L32.8896 141.573C30.9391 142.186 29.157 141.99 27.6879 141.18C26.2429 140.371 25.1833 138.973 24.6294 137.207C24.1959 135.785 24.0755 134.313 24.485 133.013C24.9185 131.738 25.8576 130.634 27.5435 129.923L28.5308 133.16C27.2062 133.822 26.7968 134.877 27.2303 136.324C27.7844 138.115 29.4459 138.85 31.7579 138.115L31.9505 138.066C34.3828 137.281 35.2981 135.785 34.6961 133.871C34.2625 132.473 33.1787 131.639 31.5411 131.983L30.6261 128.868C32.1191 128.5 33.4919 128.672 34.6478 129.432C35.8278 130.168 36.767 131.419 37.321 133.209C37.8507 135.024 37.7784 136.79 37.0802 138.262Z" />
<path d="M99.4582 106.375C99.4582 107.908 98.2438 109.15 96.7457 109.15C95.2476 109.15 94.0332 107.908 94.0332 106.375C94.0332 104.843 95.2476 103.6 96.7457 103.6C98.2438 103.6 99.4582 104.843 99.4582 106.375Z" />
<path d="M110.308 106.375C110.308 107.908 109.094 109.15 107.596 109.15C106.098 109.15 104.883 107.908 104.883 106.375C104.883 104.843 106.098 103.6 107.596 103.6C109.094 103.6 110.308 104.843 110.308 106.375Z" />
<path d="M121.158 106.375C121.158 107.908 119.944 109.15 118.446 109.15C116.948 109.15 115.733 107.908 115.733 106.375C115.733 104.843 116.948 103.6 118.446 103.6C119.944 103.6 121.158 104.843 121.158 106.375Z" />
</svg>
