<svg width="594" height="594" viewBox="0 0 594 594" fill="none" xmlns="http://www.w3.org/2000/svg">
<path d="M72.631 303.461C76.2716 303.461 79.2231 300.523 79.2231 296.898C79.2231 293.274 76.2716 290.335 72.631 290.335C68.9898 290.335 66.0389 293.274 66.0389 296.898C66.0389 300.523 68.9898 303.461 72.631 303.461Z" fill="white"/>
<path d="M520.9 303.461C524.54 303.461 527.492 300.523 527.492 296.898C527.492 293.274 524.54 290.335 520.9 290.335C517.258 290.335 514.308 293.274 514.308 296.898C514.308 300.523 517.258 303.461 520.9 303.461Z" fill="white"/>
<path d="M85.4819 226.419C87.6572 221.825 90.8873 219.857 95.172 221.169L95.37 221.235C101.435 223.006 104.269 230.029 101.699 238.56C98.864 247.944 92.8646 251.422 85.1519 250.11L87.5912 241.907C91.3486 242.104 93.722 240.66 94.9087 236.657C95.8973 233.375 94.9087 231.275 92.206 230.488L92.008 230.422C89.5026 229.701 87.7892 230.947 86.7999 234.163L85.4819 238.494L79.7465 236.788L80.8672 233.047C81.7238 230.225 80.9332 228.388 78.6258 227.666L78.4938 227.6C76.5164 227.01 74.8024 227.732 73.8137 230.947C72.9564 233.966 73.8137 236.198 76.4504 237.838L74.0111 245.975C66.2983 242.825 64.7822 235.41 66.8257 228.584C69.133 220.775 74.2751 216.116 79.8125 217.757L79.9445 217.822C83.7679 219.003 85.8112 221.825 85.4819 226.419Z" fill="white"/>
<path d="M109.346 210.537C106.906 211.587 103.94 211.521 100.775 209.815C97.216 207.912 95.6333 204.959 95.568 201.284C95.502 197.674 97.018 193.343 99.5227 188.684L101.369 185.271L100.116 184.615C96.4247 182.646 93.9193 182.646 91.81 186.518C90.03 189.799 90.8873 192.227 93.3267 194L88.9753 201.94C85.5479 199.775 83.7679 196.69 83.3719 193.409C82.9765 190.127 83.9652 186.321 86.0092 182.646C88.0526 178.905 90.492 176.215 93.59 174.836C96.6227 173.524 100.116 173.786 104.269 176.018L124.178 186.78L119.695 194.984L116.004 193.015C117.52 196.165 117.981 199.709 115.344 204.499C113.894 207.322 111.784 209.487 109.346 210.537ZM109.016 189.34L106.445 187.962L104.665 191.243C102.028 196.1 101.501 199.512 104.797 201.284C107.104 202.531 109.214 201.94 110.862 198.856C112.84 195.115 112.444 191.243 109.016 189.34Z" fill="white"/>
<path d="M136.242 183.368L124.705 173.393L126.024 171.883C126.814 169.455 125.035 166.765 121.409 162.827C118.377 159.48 113.63 155.018 107.961 150.161L125.76 129.883L146.789 148.127L150.019 144.452L161.555 154.427L156.084 160.661L149.623 155.214L135.384 171.555L141.647 177.2L136.242 183.368ZM132.814 164.139L140.593 155.214L124.705 141.367L118.574 148.324C121.607 151.015 125.035 154.164 127.474 156.921C130.111 159.677 131.89 161.909 132.814 164.139Z" fill="white"/>
<path d="M164.39 139.136C161.688 139.071 159.116 137.758 156.941 134.804C154.568 131.523 154.37 128.242 155.886 124.895C157.402 121.614 160.633 118.333 164.918 115.183L168.082 112.886L167.225 111.77C164.72 108.423 162.478 107.373 158.919 109.998C155.886 112.229 155.689 114.723 157.073 117.413L149.755 122.795C147.58 119.382 147.251 115.839 148.305 112.688C149.36 109.538 151.865 106.585 155.293 104.026C158.721 101.532 162.149 100.088 165.511 100.22C168.807 100.351 171.905 102.057 174.674 105.798L188.056 123.976L180.475 129.489L177.97 126.142C177.97 129.686 176.85 133.033 172.433 136.248C169.862 138.152 167.093 139.201 164.39 139.136ZM173.158 119.842L171.444 117.479L168.412 119.711C163.929 122.992 162.017 125.879 164.192 128.833C165.709 130.933 167.884 131.326 170.719 129.227C174.212 126.733 175.465 122.992 173.158 119.842Z" fill="white"/>
<path d="M203.284 85.1254L215.018 110.326L206.317 114.329L194.583 89.1283L185.222 93.4599L182.321 87.2909L209.679 74.6255L212.579 80.7938L203.284 85.1254Z" fill="white"/>
<path d="M235.652 66.7505L238.288 77.3818L244.419 75.8723C252.33 73.9689 258.461 76.7911 260.307 84.2722L260.373 84.4695C262.218 91.8853 258.329 96.8069 249.891 98.907L234.795 102.582L226.488 69.0473L235.652 66.7505ZM250.946 86.7003L250.88 86.5036C250.023 83.1568 247.781 81.9754 243.958 82.8941L239.87 83.8788L242.376 93.854L246.463 92.8693C250.221 91.8853 251.737 89.8505 250.946 86.7003Z" fill="white"/>
<path d="M332.557 61.5C340.27 62.6156 345.082 65.8313 344.225 71.8033V71.9346C343.632 75.8722 341.127 78.2343 336.512 78.6283C341.39 80.2038 343.962 83.0253 343.302 87.5535V87.6195C342.379 94.1159 337.369 97.1347 328.602 95.888L312.583 93.5912L317.593 59.3999L332.557 61.5ZM322.866 89.0629L327.415 89.719C331.173 90.2443 333.216 89.2596 333.678 86.1754V86.1101C334.073 83.2219 332.623 81.5158 329.129 81.0565L324.119 80.3344L322.866 89.0629ZM324.976 74.4941L328.734 75.0188C332.096 75.4782 333.942 74.3628 334.337 71.6719V71.6066C334.732 68.7191 332.952 67.669 329.459 67.1437L326.097 66.6843L324.976 74.4941Z" fill="white"/>
<path d="M358.53 98.2508C356.552 94.3132 356.288 89.3909 358.201 84.4033L358.398 83.944C360.31 78.9563 363.804 75.3468 367.957 73.5754C372.11 71.8033 377.054 71.7379 381.932 73.5754C386.811 75.4128 390.502 78.6283 392.48 82.6972C394.392 86.7001 394.656 91.5571 392.744 96.5447L392.546 97.0694C390.634 102.188 387.14 105.667 382.987 107.373C378.834 109.145 373.956 109.145 369.077 107.307C364.067 105.47 360.508 102.254 358.53 98.2508ZM383.317 93.7225L383.449 93.2632C385.822 87.0941 384.305 82.3032 379.229 80.4004C374.285 78.563 369.935 80.9911 367.561 87.1595L367.364 87.6195C364.991 93.7879 366.375 98.5788 371.583 100.482C376.659 102.451 381.009 99.8916 383.317 93.7225Z" fill="white"/>
<path d="M420.497 101.139L405.005 124.239L397.094 118.989L416.344 90.2446L442.317 107.504L423.068 136.249L415.157 130.998L430.649 107.898L420.497 101.139Z" fill="white"/>
<path d="M466.312 128.964L462.357 132.705C466.114 131.785 470.992 132.77 474.487 136.511C477.387 139.595 478.837 143.401 478.508 147.47C478.179 151.474 476.069 155.739 471.85 159.677L471.454 160.005C467.235 163.943 462.884 165.78 458.863 165.911C454.71 166.043 450.952 164.402 447.986 161.252C444.294 157.38 443.569 152.721 444.822 149.111L432.363 160.792L425.771 153.836L459.72 122.073L466.312 128.964ZM464.73 152.917L465.126 152.524C470.334 147.667 470.399 142.877 467.103 139.332C463.676 135.658 458.731 135.526 453.656 140.317L453.26 140.71C448.184 145.436 447.92 150.161 451.546 153.967C455.172 157.773 459.786 157.577 464.73 152.917Z" fill="white"/>
<path d="M471.256 182.647C472.245 178.38 475.146 174.378 479.827 171.753L480.288 171.49C484.968 168.799 489.912 168.274 494.263 169.521C498.614 170.768 502.438 173.853 505.008 178.38C507.646 182.909 508.436 187.7 507.316 192.097C506.195 196.362 503.36 200.3 498.68 202.99L498.219 203.253C493.472 206.009 488.594 206.469 484.243 205.222C479.892 203.975 476.135 200.825 473.498 196.362C470.927 191.703 470.202 186.978 471.256 182.647ZM493.34 194.787L493.736 194.525C499.471 191.243 501.383 186.584 498.68 181.925C496.043 177.33 491.099 176.478 485.364 179.759L484.902 180.021C479.167 183.303 477.189 187.831 479.958 192.622C482.661 197.347 487.605 198.069 493.34 194.787Z" fill="white"/>
<path d="M492.483 225.041C494.395 221.103 498.087 218.018 503.492 216.378L504.02 216.247C509.36 214.606 514.238 215.197 518.259 217.362C522.214 219.528 525.114 223.269 526.565 228.06C527.752 231.866 528.081 235.804 526.894 239.282C525.708 242.695 523.071 245.647 518.456 247.551L515.82 238.888C519.445 237.182 520.566 234.294 519.38 230.422C517.929 225.632 513.38 223.597 507.052 225.566L506.525 225.697C499.867 227.732 497.361 231.735 498.943 236.854C500.064 240.594 503.031 242.825 507.514 241.973L510.084 250.241C505.998 251.226 502.24 250.7 499.141 248.666C495.977 246.697 493.406 243.285 491.89 238.494C490.308 233.703 490.505 228.978 492.483 225.041Z" fill="white"/>
<path d="M508.502 365.94C506.327 370.534 503.097 372.503 498.878 371.256L498.68 371.191C492.615 369.418 489.781 362.462 492.285 353.931C495.054 344.546 501.054 341.068 508.766 342.25L506.393 350.453C502.636 350.255 500.262 351.699 499.076 355.768C498.087 359.05 499.076 361.149 501.844 361.937L502.042 362.003C504.547 362.725 506.261 361.478 507.25 358.196L508.502 353.865L514.238 355.506L513.117 359.247C512.26 362.134 513.051 363.906 515.424 364.627L515.556 364.693C517.534 365.284 519.248 364.562 520.236 361.281C521.094 358.262 520.17 356.031 517.534 354.456L519.907 346.252C527.62 349.403 529.202 356.752 527.224 363.578C524.917 371.387 519.907 376.112 514.304 374.472L514.172 374.406C510.216 373.356 508.173 370.534 508.502 365.94Z" fill="white"/>
<path d="M484.771 382.018C487.209 380.903 490.176 380.968 493.34 382.675C496.9 384.578 498.482 387.531 498.548 391.141C498.614 394.816 497.163 399.081 494.659 403.741L492.813 407.154L494.065 407.81C497.757 409.779 500.262 409.713 502.372 405.841C504.152 402.494 503.228 400.131 500.789 398.359L505.074 390.354C508.502 392.453 510.348 395.538 510.744 398.819C511.139 402.1 510.216 405.841 508.239 409.582C506.261 413.322 503.822 416.079 500.724 417.457C497.691 418.769 494.197 418.573 490.044 416.341L470.07 405.71L474.487 397.507L478.179 399.475C476.596 396.325 476.201 392.782 478.771 387.925C480.288 385.235 482.331 383.068 484.771 382.018ZM485.232 403.15L487.803 404.528L489.583 401.248C492.219 396.325 492.681 392.912 489.385 391.206C487.078 389.96 484.968 390.616 483.32 393.7C481.343 397.375 481.804 401.313 485.232 403.15Z" fill="white"/>
<path d="M458.006 409.319L469.608 419.229L468.29 420.738C467.565 423.166 469.279 425.857 472.971 429.795C476.069 433.141 480.815 437.538 486.485 442.329L468.883 462.739L447.722 444.692L444.558 448.432L432.956 438.523L438.361 432.223L444.822 437.604L458.929 421.197L452.6 415.62L458.006 409.319ZM461.566 428.548L453.853 437.538L469.872 451.254L475.937 444.233C472.905 441.542 469.476 438.457 466.906 435.701C464.334 433.01 462.555 430.779 461.566 428.548Z" fill="white"/>
<path d="M430.055 453.879C432.758 453.945 435.329 455.192 437.57 458.146C440.009 461.361 440.141 464.708 438.691 468.055C437.241 471.402 434.011 474.617 429.791 477.833L426.627 480.195L427.485 481.312C429.989 484.658 432.231 485.709 435.791 483.018C438.823 480.786 439.021 478.227 437.57 475.602L444.888 470.22C447.063 473.633 447.393 477.177 446.404 480.327C445.415 483.477 442.91 486.496 439.482 488.989C436.054 491.484 432.692 492.993 429.33 492.928C426.034 492.796 422.936 491.155 420.167 487.415L406.653 469.368L414.169 463.789L416.673 467.136C416.607 463.658 417.728 460.245 422.145 456.964C424.65 454.864 427.419 453.814 430.055 453.879ZM421.485 473.239L423.199 475.602L426.166 473.37C430.649 470.024 432.56 467.136 430.319 464.183C428.803 462.149 426.627 461.754 423.793 463.855C420.365 466.349 419.113 470.09 421.485 473.239Z" fill="white"/>
<path d="M352.932 522.204L341 497.069L349.636 493L361.568 518.135L370.863 513.738L373.763 519.907L346.471 532.77L343.637 526.601L352.932 522.204Z" fill="white"/>
<path d="M359.321 526.725L356.618 516.093L350.488 517.668C342.577 519.637 336.446 516.881 334.534 509.399L334.469 509.202C332.557 501.787 336.446 496.865 344.884 494.699L359.915 490.893L368.419 524.362L359.321 526.725ZM343.896 506.906L343.962 507.102C344.818 510.449 347.126 511.63 350.883 510.646L354.97 509.596L352.465 499.686L348.444 500.736C344.554 501.655 343.104 503.755 343.896 506.906Z" fill="white"/>
<path d="M262.482 532.5C254.769 531.45 249.957 528.234 250.748 522.262V522.13C251.275 518.193 253.78 515.831 258.395 515.371C253.517 513.862 250.88 510.974 251.539 506.511V506.446C252.462 499.949 257.406 496.93 266.173 498.112L282.258 500.343L277.512 534.6L262.482 532.5ZM269.997 519.506L266.239 518.981C262.877 518.521 261.031 519.702 260.702 522.328V522.393C260.307 525.281 262.087 526.331 265.58 526.79L268.942 527.249L269.997 519.506ZM271.975 504.871L267.426 504.281C263.669 503.755 261.625 504.74 261.163 507.824V507.89C260.768 510.777 262.284 512.484 265.778 512.943L270.788 513.599L271.975 504.871Z" fill="white"/>
<path d="M236.179 495.946C238.222 499.884 238.486 504.74 236.64 509.793L236.443 510.318C234.597 515.372 231.103 518.915 227.016 520.753C222.863 522.525 217.985 522.656 213.041 520.819C208.096 518.981 204.405 515.831 202.427 511.762C200.515 507.759 200.186 502.902 202.031 497.849L202.229 497.325C204.141 492.206 207.569 488.727 211.722 486.955C215.875 485.183 220.754 485.118 225.698 486.955C230.576 488.727 234.202 491.943 236.179 495.946ZM211.393 500.671L211.261 501.131C208.953 507.365 210.535 512.156 215.545 513.993C220.556 515.831 224.84 513.337 227.148 507.102L227.346 506.578C229.653 500.343 228.202 495.618 223.061 493.715C217.985 491.878 213.699 494.437 211.393 500.671Z" fill="white"/>
<path d="M174.212 493.452L189.572 470.286L197.483 475.471L178.366 504.346L152.327 487.218L171.444 458.342L179.354 463.527L163.995 486.693L174.212 493.452Z" fill="white"/>
<path d="M128.331 465.954L132.286 462.214C128.528 463.133 123.65 462.214 120.156 458.473C117.19 455.389 115.74 451.582 116.07 447.579C116.333 443.576 118.442 439.31 122.596 435.373L122.991 434.979C127.21 431.041 131.561 429.138 135.516 429.007C139.669 428.81 143.427 430.451 146.393 433.601C150.085 437.473 150.876 442.132 149.689 445.742L162.083 433.995L168.741 440.951L134.989 472.911L128.331 465.954ZM129.781 442.001L129.386 442.329C124.244 447.185 124.178 452.042 127.474 455.52C130.968 459.129 135.912 459.261 140.922 454.47L141.317 454.076C146.393 449.286 146.591 444.626 142.9 440.82C139.274 437.014 134.725 437.342 129.781 442.001Z" fill="white"/>
<path d="M123.057 412.338C122.134 416.604 119.234 420.607 114.553 423.297L114.092 423.56C109.411 426.251 104.467 426.842 100.116 425.594C95.7653 424.348 91.9419 421.329 89.2392 416.8C86.6025 412.272 85.7452 407.482 86.7999 403.15C87.9205 398.819 90.6892 394.881 95.37 392.191L95.8313 391.928C100.578 389.172 105.456 388.647 109.807 389.894C114.158 391.141 117.981 394.225 120.618 398.688C123.321 403.216 124.046 408.007 123.057 412.338ZM100.907 400.328L100.512 400.591C94.7766 403.938 92.9306 408.597 95.6333 413.257C98.3367 417.85 103.281 418.638 109.015 415.291L109.477 415.029C115.212 411.681 117.124 407.154 114.356 402.428C111.587 397.703 106.643 396.981 100.907 400.328Z" fill="white"/>
<path d="M101.501 369.944C99.5887 373.882 95.8973 377.031 90.5579 378.672L90.0299 378.803C84.6905 380.444 79.8125 379.919 75.7911 377.753C71.8357 375.588 68.935 371.847 67.419 367.122C66.2323 363.316 65.9029 359.378 67.0237 355.9C68.2103 352.487 70.781 349.534 75.3958 347.631L78.0985 356.293C74.4724 358.065 73.3517 360.888 74.5384 364.759C76.0551 369.55 80.6032 371.519 86.9319 369.55L87.4592 369.419C94.1173 367.319 96.6227 363.316 94.9747 358.197C93.788 354.456 90.8213 352.224 86.3386 353.144L83.8339 344.809C87.9206 343.825 91.6786 344.284 94.8427 346.318C98.0727 348.287 100.643 351.634 102.16 356.425C103.61 361.281 103.412 366.007 101.501 369.944Z" fill="white"/>
<path d="M272.25 284.625C272.25 288.726 268.926 292.05 264.825 292.05C260.724 292.05 257.4 288.726 257.4 284.625C257.4 280.524 260.724 277.2 264.825 277.2C268.926 277.2 272.25 280.524 272.25 284.625Z" fill="white"/>
<path d="M301.95 284.625C301.95 288.726 298.626 292.05 294.525 292.05C290.424 292.05 287.1 288.726 287.1 284.625C287.1 280.524 290.424 277.2 294.525 277.2C298.626 277.2 301.95 280.524 301.95 284.625Z" fill="white"/>
<path d="M331.65 284.625C331.65 288.726 328.326 292.05 324.225 292.05C320.124 292.05 316.8 288.726 316.8 284.625C316.8 280.524 320.124 277.2 324.225 277.2C328.326 277.2 331.65 280.524 331.65 284.625Z" fill="white"/>
</svg>
